<svg width="56" height="57" viewBox="0 0 56 57" fill="none" xmlns="http://www.w3.org/2000/svg">
<rect y="0.5" width="56" height="56" rx="2" fill="white"/>
<path opacity="0.2" d="M16.1375 21.825C16.0469 21.9805 15.9995 22.1574 16 22.3375V34.6625C16.001 34.8405 16.0488 35.0151 16.1388 35.1687C16.2288 35.3224 16.3577 35.4495 16.5125 35.5375L27.5125 41.725C27.6608 41.8097 27.8292 41.8529 28 41.85L28.1125 28.5L16.1375 21.825Z" fill="#2DB324"/>
<path d="M40 34.6624V22.3374C39.999 22.1594 39.9512 21.9848 39.8612 21.8311C39.7712 21.6775 39.6423 21.5503 39.4875 21.4624L28.4875 15.2749C28.3393 15.1893 28.1711 15.1443 28 15.1443C27.8289 15.1443 27.6607 15.1893 27.5125 15.2749L16.5125 21.4624C16.3577 21.5503 16.2288 21.6775 16.1388 21.8311C16.0488 21.9848 16.001 22.1594 16 22.3374V34.6624C16.001 34.8404 16.0488 35.0151 16.1388 35.1687C16.2288 35.3223 16.3577 35.4495 16.5125 35.5374L27.5125 41.7249C27.6607 41.8105 27.8289 41.8555 28 41.8555C28.1711 41.8555 28.3393 41.8105 28.4875 41.7249L39.4875 35.5374C39.6423 35.4495 39.7712 35.3223 39.8612 35.1687C39.9512 35.0151 39.999 34.8404 40 34.6624V34.6624Z" stroke="#2DB324" stroke-width="2" stroke-linecap="round" stroke-linejoin="round"/>
<path d="M34.125 31.5625V25.0625L22 18.375" stroke="#2DB324" stroke-width="2" stroke-linecap="round" stroke-linejoin="round"/>
<path d="M39.8627 21.825L28.1127 28.5L16.1377 21.825" stroke="#2DB324" stroke-width="2" stroke-linecap="round" stroke-linejoin="round"/>
<path d="M28.1125 28.5L28 41.85" stroke="#2DB324" stroke-width="2" stroke-linecap="round" stroke-linejoin="round"/>
</svg>
