<svg width="56" height="57" viewBox="0 0 56 57" fill="none" xmlns="http://www.w3.org/2000/svg">
<rect y="0.5" width="56" height="56" rx="2" fill="white"/>
<path opacity="0.2" d="M21.2377 26.425L17.3127 31.125C17.2138 31.2404 17.144 31.3778 17.1092 31.5257C17.0744 31.6736 17.0756 31.8277 17.1127 31.975L18.6502 38.9375C18.6873 39.103 18.7659 39.2564 18.8786 39.3832C18.9912 39.5099 19.1343 39.6059 19.2943 39.6622C19.4543 39.7184 19.626 39.7331 19.7932 39.7047C19.9604 39.6763 20.1177 39.6059 20.2502 39.5L24.0002 36.5C21.8002 32.675 21.0877 29.3125 21.2377 26.425Z" fill="#2DA5F3"/>
<path opacity="0.2" d="M34.6873 26.3374L38.6123 31.0499C38.7112 31.1653 38.781 31.3027 38.8158 31.4506C38.8506 31.5985 38.8494 31.7526 38.8123 31.8999L37.2748 38.8499C37.2394 39.0165 37.162 39.1712 37.05 39.2995C36.938 39.4277 36.7951 39.5253 36.6349 39.5829C36.4747 39.6405 36.3024 39.6562 36.1343 39.6285C35.9663 39.6009 35.8081 39.5308 35.6748 39.4249L31.9248 36.4249C34.1248 32.5874 34.8373 29.2249 34.6873 26.3374Z" fill="#2DA5F3"/>
<path d="M30 40.5H26" stroke="#2DA5F3" stroke-width="2" stroke-linecap="round" stroke-linejoin="round"/>
<path d="M27.3749 14.975C24.9999 16.875 17.0624 24.475 23.9999 36.5H31.9999C38.7999 24.475 30.9749 16.8875 28.6249 14.975C28.4496 14.8285 28.2284 14.7483 27.9999 14.7483C27.7715 14.7483 27.5503 14.8285 27.3749 14.975Z" stroke="#2DA5F3" stroke-width="2" stroke-linecap="round" stroke-linejoin="round"/>
<path d="M21.2377 26.425L17.3127 31.125C17.2138 31.2404 17.144 31.3778 17.1092 31.5257C17.0744 31.6736 17.0756 31.8277 17.1127 31.975L18.6502 38.9375C18.6873 39.103 18.7659 39.2564 18.8786 39.3832C18.9912 39.5099 19.1343 39.6059 19.2943 39.6622C19.4543 39.7184 19.626 39.7331 19.7932 39.7047C19.9604 39.6763 20.1177 39.6059 20.2502 39.5L24.0002 36.5" stroke="#2DA5F3" stroke-width="2" stroke-linecap="round" stroke-linejoin="round"/>
<path d="M34.6875 26.325L38.6875 31.125C38.7864 31.2403 38.8561 31.3777 38.8909 31.5256C38.9258 31.6735 38.9246 31.8276 38.8875 31.975L37.35 38.9375C37.3129 39.1029 37.2343 39.2563 37.1216 39.3831C37.009 39.5098 36.8659 39.6058 36.7059 39.6621C36.5459 39.7184 36.3742 39.733 36.207 39.7046C36.0398 39.6763 35.8825 39.6058 35.75 39.5L32 36.5" stroke="#2DA5F3" stroke-width="2" stroke-linecap="round" stroke-linejoin="round"/>
<path d="M28 26C28.8284 26 29.5 25.3284 29.5 24.5C29.5 23.6716 28.8284 23 28 23C27.1716 23 26.5 23.6716 26.5 24.5C26.5 25.3284 27.1716 26 28 26Z" fill="#2DA5F3"/>
</svg>
