<svg width="32" height="33" viewBox="0 0 32 33" fill="none" xmlns="http://www.w3.org/2000/svg">
<path opacity="0.2" d="M9.23769 14.425L5.31269 19.125C5.21381 19.2404 5.14404 19.3778 5.10924 19.5257C5.07444 19.6736 5.07562 19.8277 5.11269 19.975L6.65019 26.9375C6.68729 27.103 6.76587 27.2564 6.87855 27.3832C6.99123 27.5099 7.1343 27.6059 7.2943 27.6622C7.45431 27.7184 7.62599 27.7331 7.79321 27.7047C7.96043 27.6763 8.11768 27.6059 8.25019 27.5L12.0002 24.5C9.80019 20.675 9.08769 17.3125 9.23769 14.425Z" fill="#2DA5F3"/>
<path opacity="0.2" d="M22.6873 14.3374L26.6123 19.0499C26.7112 19.1653 26.781 19.3027 26.8158 19.4506C26.8506 19.5985 26.8494 19.7526 26.8123 19.8999L25.2748 26.8499C25.2394 27.0165 25.162 27.1712 25.05 27.2995C24.938 27.4277 24.7951 27.5253 24.6349 27.5829C24.4747 27.6405 24.3024 27.6562 24.1343 27.6285C23.9663 27.6009 23.8081 27.5308 23.6748 27.4249L19.9248 24.4249C22.1248 20.5874 22.8373 17.2249 22.6873 14.3374Z" fill="#2DA5F3"/>
<path d="M18 28.5H14" stroke="#2DA5F3" stroke-width="2" stroke-linecap="round" stroke-linejoin="round"/>
<path d="M15.3749 2.97496C12.9999 4.87496 5.06243 12.475 11.9999 24.5H19.9999C26.7999 12.475 18.9749 4.88746 16.6249 2.97496C16.4496 2.82851 16.2284 2.74829 15.9999 2.74829C15.7715 2.74829 15.5503 2.82851 15.3749 2.97496Z" stroke="#2DA5F3" stroke-width="2" stroke-linecap="round" stroke-linejoin="round"/>
<path d="M9.23769 14.425L5.31269 19.125C5.21381 19.2404 5.14404 19.3778 5.10924 19.5257C5.07444 19.6736 5.07562 19.8277 5.11269 19.975L6.65019 26.9375C6.68729 27.103 6.76587 27.2564 6.87855 27.3832C6.99123 27.5099 7.1343 27.6059 7.2943 27.6622C7.45431 27.7184 7.62599 27.7331 7.79321 27.7047C7.96043 27.6763 8.11768 27.6059 8.25019 27.5L12.0002 24.5" stroke="#2DA5F3" stroke-width="2" stroke-linecap="round" stroke-linejoin="round"/>
<path d="M22.6875 14.325L26.6875 19.125C26.7864 19.2403 26.8561 19.3777 26.8909 19.5256C26.9258 19.6735 26.9246 19.8276 26.8875 19.975L25.35 26.9375C25.3129 27.1029 25.2343 27.2563 25.1216 27.3831C25.009 27.5098 24.8659 27.6058 24.7059 27.6621C24.5459 27.7184 24.3742 27.733 24.207 27.7046C24.0398 27.6763 23.8825 27.6058 23.75 27.5L20 24.5" stroke="#2DA5F3" stroke-width="2" stroke-linecap="round" stroke-linejoin="round"/>
<path d="M16 14C16.8284 14 17.5 13.3284 17.5 12.5C17.5 11.6716 16.8284 11 16 11C15.1716 11 14.5 11.6716 14.5 12.5C14.5 13.3284 15.1716 14 16 14Z" fill="#2DA5F3"/>
</svg>
