<svg width="16" height="16" viewBox="0 0 16 16" fill="none" xmlns="http://www.w3.org/2000/svg">
<g clip-path="url(#clip0_290_2761)">
<path d="M5.60136 8.00005C5.60136 6.67461 6.67558 5.59986 8.00107 5.59986C9.32656 5.59986 10.4014 6.67461 10.4014 8.00005C10.4014 9.32548 9.32656 10.4002 8.00107 10.4002C6.67558 10.4002 5.60136 9.32548 5.60136 8.00005ZM4.30381 8.00005C4.30381 10.042 5.95907 11.6972 8.00107 11.6972C10.0431 11.6972 11.6983 10.042 11.6983 8.00005C11.6983 5.95813 10.0431 4.30294 8.00107 4.30294C5.95907 4.30294 4.30387 5.95801 4.30387 8.00005H4.30381ZM10.9807 4.15634C10.9807 4.32723 11.0313 4.49429 11.1261 4.63641C11.221 4.77854 11.3559 4.88933 11.5138 4.95479C11.6716 5.02025 11.8454 5.03742 12.013 5.00415C12.1806 4.97088 12.3346 4.88866 12.4555 4.76787C12.5764 4.64709 12.6587 4.49317 12.6921 4.32559C12.7255 4.158 12.7085 3.98427 12.6432 3.82637C12.5778 3.66847 12.4671 3.53349 12.3251 3.43849C12.183 3.3435 12.016 3.29276 11.8451 3.29269H11.8448C11.6157 3.2928 11.396 3.38381 11.234 3.54574C11.072 3.70768 10.9809 3.92729 10.9807 4.15634ZM5.09215 13.8607C4.39015 13.8288 4.0086 13.7118 3.75503 13.6131C3.41886 13.4822 3.17901 13.3263 2.92682 13.0745C2.67464 12.8227 2.51854 12.583 2.38824 12.2469C2.2894 11.9935 2.17246 11.6118 2.14055 10.9098C2.10565 10.1509 2.09868 9.92291 2.09868 8.00016C2.09868 6.07742 2.10622 5.85007 2.14055 5.0905C2.17252 4.38853 2.29032 4.00762 2.38824 3.75343C2.51912 3.41728 2.67499 3.17743 2.92682 2.92526C3.17866 2.67309 3.41829 2.51699 3.75503 2.3867C4.00848 2.28786 4.39015 2.17093 5.09215 2.13902C5.85112 2.10411 6.07911 2.09714 8.00107 2.09714C9.92303 2.09714 10.1512 2.10457 10.9108 2.13913C11.6128 2.1711 11.9938 2.28889 12.248 2.38681C12.5841 2.5171 12.824 2.67355 13.0762 2.92537C13.3284 3.1772 13.4839 3.41739 13.6148 3.75355C13.7136 4.00699 13.8305 4.38864 13.8624 5.09061C13.8974 5.85019 13.9043 6.07753 13.9043 8.00028C13.9043 9.92302 13.8974 10.1504 13.8624 10.9099C13.8305 11.6119 13.713 11.9935 13.6148 12.247C13.4839 12.5832 13.328 12.823 13.0762 13.0746C12.8243 13.3262 12.5841 13.4823 12.248 13.6132C11.9945 13.712 11.6128 13.8289 10.9108 13.8608C10.1519 13.8958 9.92389 13.9027 8.00107 13.9027C6.07825 13.9027 5.85089 13.8958 5.09215 13.8608V13.8607ZM5.03253 0.843652C4.26602 0.878558 3.74224 1.00009 3.28482 1.17808C2.81139 1.36188 2.41007 1.60846 2.00933 2.00855C1.6086 2.40864 1.36263 2.81 1.17883 3.28399C1.00083 3.74168 0.879293 4.26515 0.844386 5.03163C0.808903 5.79933 0.800781 6.04476 0.800781 8.00005C0.800781 9.95534 0.808903 10.2008 0.844386 10.9685C0.879293 11.735 1.00083 12.2584 1.17883 12.7161C1.36263 13.1895 1.60865 13.5916 2.00933 13.9915C2.41002 14.3915 2.81081 14.6377 3.28482 14.822C3.74311 15 4.26602 15.1215 5.03253 15.1564C5.80066 15.1913 6.0457 15.2 8.00107 15.2C9.95644 15.2 10.2019 15.1919 10.9696 15.1564C11.7362 15.1215 12.2596 15 12.7173 14.822C13.1907 14.6377 13.5921 14.3916 13.9928 13.9915C14.3935 13.5915 14.639 13.1895 14.8233 12.7161C15.0013 12.2584 15.1234 11.7349 15.1578 10.9685C15.1927 10.2002 15.2008 9.95534 15.2008 8.00005C15.2008 6.04476 15.1927 5.79933 15.1578 5.03163C15.1228 4.26509 15.0013 3.74139 14.8233 3.28399C14.639 2.81058 14.3929 2.40928 13.9928 2.00855C13.5927 1.60783 13.1907 1.36188 12.7179 1.17808C12.2596 1.00009 11.7361 0.877982 10.9702 0.843652C10.2023 0.808574 9.95701 0.800049 8.00193 0.800049C6.04685 0.800049 5.80095 0.80817 5.03282 0.843652" fill="white"/>
</g>
<defs>
<clipPath id="clip0_290_2761">
<rect width="16" height="16" fill="white"/>
</clipPath>
</defs>
</svg>
