<svg width="16" height="17" viewBox="0 0 16 17" fill="none" xmlns="http://www.w3.org/2000/svg">
<g clip-path="url(#clip0_180_3945)">
<path d="M7.02503 0.55302C4.36618 0.849837 1.71669 3.00098 1.60734 6.07382C1.5386 7.95001 2.07131 9.35755 3.8569 9.75278C4.63175 8.38586 3.60695 8.08436 3.44761 7.09549C2.79304 3.04316 8.1217 0.279636 10.9102 3.10877C12.8395 5.06776 11.5695 11.0947 8.45757 10.4683C5.4769 9.86995 9.91666 5.07245 7.53743 4.13045C5.60344 3.36497 4.57551 6.47218 5.49252 8.01563C4.95512 10.6698 3.79754 13.1709 4.2662 16.4999C5.78621 15.397 6.29861 13.2849 6.71884 11.0822C7.48276 11.5462 7.89049 12.0289 8.8653 12.1039C12.4599 12.382 14.4673 8.51553 13.9768 4.94904C13.541 1.78715 10.3853 0.178094 7.02503 0.55302Z" fill="#5F6C72"/>
</g>
<defs>
<clipPath id="clip0_180_3945">
<rect width="16" height="16" fill="white" transform="translate(0 0.5)"/>
</clipPath>
</defs>
</svg>
