<svg width="16" height="12" viewBox="0 0 16 12" fill="none" xmlns="http://www.w3.org/2000/svg">
<path d="M8.35477 11.5024L5.07745 11.4425C4.01632 11.4216 2.95255 11.4633 1.91223 11.247C0.329668 10.9238 0.217553 9.33908 0.100237 8.00983C-0.0614125 6.14108 0.0011669 4.23841 0.306221 2.38525C0.478434 1.34544 1.15616 0.724975 2.20424 0.657456C5.74229 0.412422 9.30387 0.441462 12.8341 0.555779C13.2069 0.566258 13.5823 0.623537 13.9499 0.688735C15.7647 1.00673 15.8089 2.80252 15.9265 4.31425C16.0439 5.84157 15.9943 7.37673 15.7701 8.89365C15.5902 10.1496 15.246 11.2029 13.7935 11.3046C11.9736 11.4375 10.1954 11.5445 8.37038 11.5105C8.37046 11.5024 8.35998 11.5024 8.35477 11.5024ZM6.42802 8.32263C7.79948 7.53545 9.14478 6.76139 10.5084 5.97948C9.13437 5.1923 7.79164 4.41824 6.42802 3.63634V8.32263Z" fill="white"/>
</svg>
